<svg width="102" height="43" viewBox="0 0 102 43" fill="none" xmlns="http://www.w3.org/2000/svg">
<path d="M43 6.72583V36.2883C43 37.0408 42.4088 37.6321 41.6562 37.6321H24.3756C23.865 32.8483 24.3219 25.404 25.5312 22.8508C25.5312 22.8508 19.995 22.8508 17.4688 22.8508C17.4688 17.234 20.0756 10.0852 22.7094 5.38208H41.6562C42.4088 5.38208 43 5.97333 43 6.72583Z" fill="#FFE7ED"/>
<path d="M24.3756 37.6321H1.34375C0.59125 37.6321 0 37.0408 0 36.2883V6.72583C0 5.97333 0.59125 5.38208 1.34375 5.38208H22.7094C20.0756 10.0852 17.4688 17.234 17.4688 22.8508C19.995 22.8508 25.5312 22.8508 25.5312 22.8508C24.3219 25.404 23.865 32.8483 24.3756 37.6321Z" fill="#FFE7ED"/>
<path d="M25.4963 42.9936C25.1657 42.9936 24.8379 42.87 24.5799 42.612C22.3331 40.3652 22.4299 29.4889 23.693 24.1945H17.4688C16.727 24.1945 16.125 23.5925 16.125 22.8508C16.125 14.7318 21.1748 3.80714 24.5799 0.399395C25.1039 -0.124668 25.9559 -0.124668 26.4799 0.399395C27.004 0.923457 27.004 1.77539 26.4799 2.29946C23.9429 4.83914 19.3822 14.1137 18.8609 21.507H25.5312C25.9908 21.507 26.4181 21.7408 26.6654 22.1278C26.9126 22.5175 26.9449 23.004 26.7487 23.4178C25.1013 26.9411 25.1658 39.2526 26.4826 40.7146C26.9718 41.2548 26.961 42.1121 26.4316 42.612C26.1682 42.8646 25.8296 42.9936 25.4963 42.9936Z" fill="#FF0043"/>
<path d="M21.4999 32.2571C18.9414 32.2571 14.2947 31.5288 8.92781 29.4809C8.23443 29.2175 7.88774 28.4408 8.15112 27.7475C8.41449 27.0514 9.19118 26.6993 9.88724 26.9708C14.9182 28.8896 19.2881 29.5696 21.4999 29.5696C23.7117 29.5696 28.0816 28.8896 33.1153 26.9708C33.8033 26.702 34.5854 27.0487 34.8487 27.7475C35.1148 28.4408 34.7681 29.2175 34.0721 29.4809C28.7051 31.5288 24.0584 32.2571 21.4999 32.2571Z" fill="#FF0043"/>
<path d="M12.0938 16.1321C11.352 16.1321 10.75 15.5301 10.75 14.7883V12.1008C10.75 11.3591 11.352 10.7571 12.0938 10.7571C12.8355 10.7571 13.4375 11.3591 13.4375 12.1008V14.7883C13.4375 15.5301 12.8355 16.1321 12.0938 16.1321Z" fill="#FF0043"/>
<path d="M28.2188 16.1321C27.477 16.1321 26.875 15.5301 26.875 14.7883V12.1008C26.875 11.3591 27.477 10.7571 28.2188 10.7571C28.9605 10.7571 29.5625 11.3591 29.5625 12.1008V14.7883C29.5625 15.5301 28.9605 16.1321 28.2188 16.1321Z" fill="#FF0043"/>
<path d="M78.5532 19.4283V4.6261L60.9165 6.83069V19.4283H78.5532Z" fill="#FF0043"/>
<path d="M81.0728 19.4283H101.229V1.79163L81.0728 4.31116V19.4283Z" fill="#FF0043"/>
<path d="M81.0728 21.9479V37.0651L101.229 39.5846V21.9479H81.0728Z" fill="#FF0043"/>
<path d="M78.5532 21.9479H60.9165V34.5455L78.5532 36.7501V21.9479Z" fill="#FF0043"/>
</svg>
